<svg xmlns="http://www.w3.org/2000/svg" width="40" height="40" viewBox="0 0 40 40">
    <g data-name="Groupe 5027" transform="translate(-1770 -20)">
        <rect data-name="Rectangle 2160" width="40" height="40" rx="4" transform="translate(1770 20)" style="fill:none;opacity:.002"/>
        <path data-name="Tracé 105" d="M16 98.725c-6.114 0-11.658 3.345-15.75 8.778a1.267 1.267 0 0 0 0 1.512c4.092 5.44 9.636 8.785 15.75 8.785s11.658-3.345 15.75-8.778a1.267 1.267 0 0 0 0-1.512c-4.092-5.44-9.636-8.785-15.75-8.785zm.439 16.254a6.73 6.73 0 1 1 6.278-6.278 6.735 6.735 0 0 1-6.278 6.278zm-.2-3.1a3.624 3.624 0 1 1 3.384-3.384 3.618 3.618 0 0 1-3.387 3.381z" transform="translate(1774 -68.262)" style="fill:#383333"/>
    </g>
</svg>
