<svg xmlns="http://www.w3.org/2000/svg" width="13" height="7.384" viewBox="0 0 13 7.384">
    <path data-name="Tracé 11744" d="M13.53 9.741H1.8a.652.652 0 0 1 0-1.3h11.73a.652.652 0 0 1 0 1.3z" transform="translate(-1.166 -8.438)" style="fill:#786d6d"/>
    <path data-name="Tracé 11745" d="M14.811 17.616H7.427a.652.652 0 0 1 0-1.3h7.384a.652.652 0 0 1 0 1.3z" transform="translate(-4.619 -13.272)" style="fill:#786d6d"/>
    <path data-name="Tracé 11746" d="M16.349 25.491h-2.172a.652.652 0 0 1 0-1.3h2.172a.652.652 0 0 1 0 1.3z" transform="translate(-8.763 -18.107)" style="fill:#786d6d"/>
</svg>
