<svg xmlns="http://www.w3.org/2000/svg" width="45" height="45" viewBox="0 0 45 45">
    <g data-name="Rectangle 2161" style="fill:transparent;stroke:#786d6d">
        <rect width="45" height="45" rx="22.5" style="stroke:none"/>
        <rect x=".5" y=".5" width="44" height="44" rx="22" style="fill:none"/>
    </g>
    <g data-name="Groupe 6103">
        <path data-name="Tracé 17138" d="M198 402.649a5.377 5.377 0 0 1 .353-.9 2.094 2.094 0 0 1 1.867-1.057q6.78-.012 13.559 0a2.239 2.239 0 0 1 2.187 1.866.647.647 0 0 0 .033.1v.561a.941.941 0 0 0-.035.114 2.243 2.243 0 0 1-2.185 1.849q-6.779.007-13.559 0a2.1 2.1 0 0 1-1.877-1.072 5.324 5.324 0 0 1-.344-.888z" transform="translate(-184 -374.177)" style="fill:#786d6d"/>
        <path data-name="Tracé 17139" d="M302.536 113.276c.337.184.47.4.411.671-.063.293-.273.435-.677.454a2.053 2.053 0 0 0-1.935 2.016c-.02 1.169 0 2.339 0 3.508a.766.766 0 0 0 .012.088h2.001a.558.558 0 0 1 .564.34.547.547 0 0 1-.135.642l-3.872 4.047a.563.563 0 0 1-.89-.005l-3.86-4.034a.553.553 0 0 1-.147-.64.562.562 0 0 1 .575-.35h2.008v-.8a6.011 6.011 0 0 1 .184-1.6 5.821 5.821 0 0 1 5.068-4.315 1.138 1.138 0 0 0 .136-.029z" transform="translate(-275.955 -100.276)" style="fill:#786d6d"/>
    </g>
</svg>
