<svg xmlns="http://www.w3.org/2000/svg" width="23.996" height="21.015" viewBox="0 0 23.996 21.015">
    <path data-name="Union 3" d="M-23837-6991.986h.42l-.006-.006h6.236v.006h5.35l-6 6zm-12-5.016a10.016 10.016 0 0 1 10-10 10.017 10.017 0 0 1 10 10 9.913 9.913 0 0 1-.467 3.017h-2.131a7.913 7.913 0 0 0 .6-3.017 7.968 7.968 0 0 0-5-7.41v.413a2 2 0 0 1-2 2h-1v1a2 2 0 0 1-2 2v3h4a2 2 0 0 1 2 2v.018h-6.41l6.225 6.231a9.984 9.984 0 0 1-3.812.754A10.015 10.015 0 0 1-23849-6997zm2 0a8.008 8.008 0 0 0 7 7.931V-6991l-1-1-2-2.005v-2l-2-2-1.568-1.568a7.928 7.928 0 0 0-.432 2.573z" transform="translate(23849.002 7007.003)" style="fill:#383333"/>
</svg>
