<svg xmlns="http://www.w3.org/2000/svg" width="62.287" height="60" viewBox="0 0 62.287 60">
    <defs>
        <style>
            .cls-3{fill:#383333}
        </style>
    </defs>
    <g id="Run_ico_62" transform="translate(-688 -132.15)">
        <g id="Groupe_4248" opacity="0.5" transform="translate(671.992 47.683)">
            <path id="Tracé_11623" fill="#18a189" fill-rule="evenodd" d="M232.117 378.386s-16.472 10.1-16.472 20.879a16.472 16.472 0 0 0 32.944 0c0-10.776-16.472-20.879-16.472-20.879z" transform="translate(-170.294 -293.918)"/>
        </g>
        <g id="synchronize" transform="translate(688 147.15)">
            <g id="Groupe_4263" transform="translate(26 17)">
                <path id="Tracé_11694" d="M19.5 17h-5a1.5 1.5 0 0 1 0-3H18v-3.5a1.5 1.5 0 0 1 3 0v5a1.5 1.5 0 0 1-1.5 1.5z" class="cls-3" transform="translate(-13 -9)"/>
            </g>
            <g id="Groupe_4264" transform="translate(14.218 17)">
                <path id="Tracé_11695" d="M8.613 18.34a1.559 1.559 0 0 1-.37-.044 1.5 1.5 0 0 1-1.088-1.822A9.915 9.915 0 0 1 16.791 9a9.8 9.8 0 0 1 6.19 2.178 9.247 9.247 0 0 1 2.858 3.748 1.5 1.5 0 0 1-2.772 1.146 6.269 6.269 0 0 0-1.952-2.548A6.822 6.822 0 0 0 16.793 12a6.911 6.911 0 0 0-6.724 5.208 1.507 1.507 0 0 1-1.456 1.132z" class="cls-3" transform="translate(-7.109 -9)"/>
            </g>
            <g id="Groupe_4265" transform="translate(14.938 27.658)">
                <path id="Tracé_11696" d="M16.631 23.671a9.8 9.8 0 0 1-6.19-2.178 9.247 9.247 0 0 1-2.858-3.748 1.5 1.5 0 1 1 2.772-1.145 6.256 6.256 0 0 0 1.952 2.548 6.822 6.822 0 0 0 4.322 1.526 6.909 6.909 0 0 0 6.724-5.208 1.5 1.5 0 0 1 2.91.734 9.907 9.907 0 0 1-9.632 7.474z" class="cls-3" transform="translate(-7.469 -14.329)"/>
            </g>
            <g id="Groupe_4266" transform="translate(14 29)">
                <path id="Tracé_11697" d="M8.5 23A1.5 1.5 0 0 1 7 21.5v-5A1.5 1.5 0 0 1 8.5 15h5a1.5 1.5 0 0 1 0 3H10v3.5A1.5 1.5 0 0 1 8.5 23z" class="cls-3" transform="translate(-7 -15)"/>
            </g>
            <g id="Groupe_4267" transform="translate(0 1)">
                <path id="Tracé_11698" d="M42.5 45h-37A5.5 5.5 0 0 1 0 39.5v-33A5.5 5.5 0 0 1 5.5 1h37A5.5 5.5 0 0 1 48 6.5v33a5.5 5.5 0 0 1-5.5 5.5zM5.5 4A2.5 2.5 0 0 0 3 6.5v33A2.5 2.5 0 0 0 5.5 42h37a2.5 2.5 0 0 0 2.5-2.5v-33A2.5 2.5 0 0 0 42.5 4z" class="cls-3" transform="translate(0 -1)"/>
            </g>
            <g id="Groupe_4268" transform="translate(0 8)">
                <path id="Tracé_11699" d="M46.5 7.5h-45a1.5 1.5 0 0 1 0-3h45a1.5 1.5 0 0 1 0 3z" class="cls-3" transform="translate(0 -4.5)"/>
            </g>
        </g>
    </g>
</svg>
